<?xml version="1.0" encoding="UTF-8" standalone="no"?>
<!DOCTYPE svg PUBLIC "-//W3C//DTD SVG 1.1//EN" "http://www.w3.org/Graphics/SVG/1.1/DTD/svg11.dtd">
<svg width="100%" height="100%" viewBox="0 0 950 239" version="1.1" xmlns="http://www.w3.org/2000/svg" xmlns:xlink="http://www.w3.org/1999/xlink" xml:space="preserve" xmlns:serif="http://www.serif.com/" style="fill-rule:evenodd;clip-rule:evenodd;stroke-linejoin:round;stroke-miterlimit:2;">
    <g id="Artboard1" transform="matrix(1,0,0,1,-0.839572,-0.449335)">
        <rect x="0.84" y="0.449" width="949.811" height="238.24" style="fill:none;"/>
        <g transform="matrix(1.24043,0,0,1.24043,-115.188,-112.935)">
            <path d="M346.18,188C335.42,184.16 324.8,182.5 324.8,175.46C324.8,168.93 330.05,165.6 341.06,165.6C347.332,165.635 353.573,166.496 359.62,168.16C363.07,164.32 364.74,158.43 364.74,153.06C364.74,153.06 354.5,148.71 337.86,148.71C314.69,148.71 304.06,160.1 304.06,176.87C304.06,197.09 321.47,200.93 334.27,205.16C341.7,207.72 347.46,210.28 347.46,216.16C347.46,222.69 342.85,226.02 332.73,226.02C324.471,225.887 316.276,224.54 308.41,222.02C305.303,226.641 303.613,232.072 303.55,237.64C303.487,243.208 315.33,243.91 334.14,243.91C357.31,243.91 368.7,233.8 368.7,215.24C368.7,198.45 357.44,192.05 346.18,188Z" style="fill:rgb(0,63,135);fill-rule:nonzero;"/>
        </g>
        <g transform="matrix(1.24043,0,0,1.24043,-115.188,-112.935)">
            <path d="M338.15,143.71C339.822,143.711 341.492,143.6 343.15,143.38C344.808,143.16 360.3,128.15 360.25,128.06C358.519,124.824 355.6,122.382 352.11,121.25L338.34,130.32L324.4,121.19C320.803,122.441 317.794,124.982 315.96,128.32C315.91,128.41 333.2,143.38 333.2,143.38C334.858,143.6 336.528,143.71 338.2,143.71L338.15,143.71Z" style="fill:rgb(0,63,135);fill-rule:nonzero;"/>
        </g>
        <g transform="matrix(1.24043,0,0,1.24043,-115.188,-112.935)">
            <path d="M453.82,241.2C449.874,242.021 445.85,242.41 441.82,242.36C438.033,242.445 434.25,242.055 430.56,241.2L406.75,202.2L401.88,202.2L401.88,241.2C401.88,241.2 398.68,242.36 391.64,242.36C388.19,242.444 384.744,242.053 381.4,241.2L381.4,151.34C384.789,150.489 388.277,150.102 391.77,150.19C395.177,150.097 398.581,150.484 401.88,151.34L401.88,186.8L406.75,186.8L428.75,151.34C432.109,150.551 435.55,150.165 439,150.19C442.658,150.179 446.306,150.565 449.88,151.34L424.28,192.69L453.82,241.2Z" style="fill:rgb(0,63,135);fill-rule:nonzero;"/>
        </g>
        <g transform="matrix(1.24043,0,0,1.24043,-115.188,-112.935)">
            <path d="M456.12,196.27C456.12,163.38 471.23,148.66 494.91,148.66C518.59,148.66 533.57,162.99 533.57,196.27C533.57,229.55 518.72,243.89 494.91,243.89C471.1,243.89 456.12,229.56 456.12,196.27ZM511.93,196.27C511.93,170.8 505.53,164.66 494.93,164.66C484.33,164.66 477.93,170.8 477.93,196.27C477.93,221.74 484.46,227.76 494.93,227.76C505.4,227.76 511.93,221.62 511.93,196.27Z" style="fill:rgb(0,63,135);fill-rule:nonzero;"/>
        </g>
        <g transform="matrix(1.24043,0,0,1.24043,-115.188,-112.935)">
            <path d="M547.77,150.19L579.39,150.19C604.48,150.19 618.94,163.12 618.94,196.27C618.94,229.42 604.48,242.36 579.39,242.36L547.77,242.36L547.77,150.19ZM578.62,226.35C590.14,226.35 597.31,220.98 597.31,196.27C597.31,171.27 590.14,166.19 578.62,166.19L568.25,166.19L568.25,226.35L578.62,226.35Z" style="fill:rgb(0,63,135);fill-rule:nonzero;"/>
        </g>
        <g transform="matrix(1.24043,0,0,1.24043,-115.188,-112.935)">
            <path d="M706.49,241.2C702.976,242.071 699.359,242.462 695.74,242.36C692.414,242.463 689.091,242.072 685.88,241.2L679.88,222.52L647.74,222.52L641.74,241.2C638.475,242.043 635.111,242.433 631.74,242.36C628.544,242.422 625.356,242.032 622.27,241.2L651.45,151.34C655.709,150.514 660.042,150.129 664.38,150.19C668.719,150.106 673.054,150.492 677.31,151.34L706.49,241.2ZM660,184.37L652.45,207.54L675.1,207.54L667.68,184.37C666.067,179.471 664.827,174.456 663.97,169.37L663.45,169.37C662.723,174.458 661.569,179.476 660,184.37Z" style="fill:rgb(0,63,135);fill-rule:nonzero;"/>
        </g>
        <g transform="matrix(1.24043,0,0,1.24043,-115.188,-112.935)">
            <path d="M728.38,239.28C728.25,234.04 730.04,228.28 733.63,224.56C737.249,225.845 741.051,226.537 744.89,226.61C752.44,226.61 757.56,223.54 757.56,214.32L757.56,151.32C757.56,151.32 761.02,150.17 767.8,150.17C771.237,150.11 774.666,150.504 778,151.34L778,216.24C778,234.42 766.61,243.64 749.59,243.64C742.289,243.725 735.055,242.238 728.38,239.28Z" style="fill:rgb(0,63,135);fill-rule:nonzero;"/>
        </g>
        <g transform="matrix(1.24043,0,0,1.24043,-115.188,-112.935)">
            <path d="M791.1,237.62C791.175,232.048 792.879,226.617 796,222C803.866,224.52 812.061,225.867 820.32,226C830.44,226 835.04,222.67 835.04,216.14C835.04,210.26 829.28,207.7 821.86,205.14C809.06,200.91 791.65,197.07 791.65,176.85C791.65,160.08 802.27,148.69 825.44,148.69C842.08,148.69 852.32,153.04 852.32,153.04C852.32,158.41 850.66,164.3 847.2,168.14C841.153,166.475 834.912,165.614 828.64,165.58C817.64,165.58 812.39,168.91 812.39,175.44C812.39,182.44 823.01,184.14 833.76,187.98C845.03,192.08 856.29,198.48 856.29,215.25C856.29,233.81 844.9,243.92 821.73,243.92C802.87,243.89 791.1,237.62 791.1,237.62Z" style="fill:rgb(0,63,135);fill-rule:nonzero;"/>
        </g>
        <g transform="matrix(1.24043,0,0,1.24043,-115.188,-112.935)">
            <path d="M222.81,213L221.29,216.55C221.04,217.44 220.14,217.94 218.88,217.94C217.1,217.94 216.21,216.94 216.21,215.02C216.254,214.576 216.383,214.145 216.59,213.75C221.498,203.125 224.053,191.564 224.08,179.86C224.003,169.112 221.758,158.49 217.48,148.63C213.548,138.575 207.434,129.517 199.58,122.11C199.189,121.738 198.763,121.403 198.31,121.11C197.029,120.079 195.672,119.146 194.25,118.32C192.089,117.167 189.697,116.515 187.25,116.41L186.11,116.41C177.184,116.531 168.361,118.343 160.11,121.75C158.741,122.313 157.874,123.692 157.96,125.17C157.907,126.277 158.434,127.336 159.35,127.96C165.177,132.351 170.653,137.189 175.73,142.43C177,143.58 177.12,144.72 176.36,145.74C175.22,147.39 173.95,147.26 172.56,145.74C167.132,139.809 161.035,134.527 154.39,130C153.141,129.067 151.638,128.534 150.08,128.47C148.316,128.504 146.614,129.131 145.25,130.25C139.4,134.554 134.255,139.743 130,145.63C129.378,146.167 129.047,146.97 129.11,147.79C129.01,149.458 130.141,150.968 131.77,151.34C131.91,151.34 132.03,151.47 132.16,151.47C132.356,151.564 132.573,151.608 132.79,151.6C139.146,153.436 145.207,156.17 150.79,159.72C152.44,160.86 152.79,162 152.06,163.28C151.33,164.56 150.06,164.67 148.38,163.53C142.448,159.73 135.926,156.942 129.08,155.28C128.541,155.133 127.988,155.05 127.43,155.03C125.481,154.922 123.64,155.964 122.73,157.69C120.476,162.607 118.772,167.758 117.65,173.05L117.65,173.56C117.65,173.68 117.53,173.81 117.53,173.93C117.53,176.35 118.8,177.62 121.21,177.62C121.59,177.62 121.97,177.49 122.35,177.49C122.73,177.49 122.99,177.36 123.35,177.36C143.914,177.553 161.292,193.234 163.59,213.67L163.59,214.3C163.59,216.59 162.7,217.73 160.8,217.86C160.54,217.86 160.03,217.98 159.02,217.98C155.846,217.962 152.735,217.084 150.02,215.44C145.831,213.158 141.131,211.974 136.36,212L123,212C122.941,211.993 122.881,211.99 122.821,211.99C121.938,211.99 121.211,212.717 121.211,213.6C121.211,213.657 121.214,213.714 121.22,213.77C121.261,214.36 121.535,214.911 121.98,215.3C129.22,220.5 133.28,226.72 134.04,234.08C134.042,234.995 134.795,235.746 135.71,235.746C135.787,235.746 135.864,235.741 135.94,235.73L136.07,235.73C140.671,235.709 145.2,234.577 149.27,232.43C152.929,230.673 156.941,229.77 161,229.79L218.76,229.79C219.959,229.803 221.006,230.628 221.3,231.79L222.57,234.58C222.82,235.35 223.46,235.72 224.57,235.72C234.34,235.72 241.83,231.79 247.29,223.79C241.85,216 234.24,212 224.59,212C223.847,211.923 223.131,212.325 222.81,213M198.31,212.11L198.19,212.11C191.46,212.11 188.19,208.68 188.19,201.95C188.19,195.22 191.49,191.8 198.19,191.8L198.31,191.8C205.04,191.8 208.31,195.22 208.31,201.95C208.31,208.68 205,212.15 198.31,212.15L198.31,212.11Z" style="fill:rgb(0,63,135);fill-rule:nonzero;"/>
        </g>
        <g transform="matrix(1.24043,0,0,1.24043,-115.188,-112.935)">
            <path d="M198.31,95.74C194.654,95.387 190.983,95.221 187.31,95.24C161.92,95.24 140.31,104.12 122.31,122.15C104.31,140.18 95.31,161.88 95.31,187.27C95.31,212.66 104.31,234.36 122.31,252.39C140.31,270.42 161.92,279.3 187.31,279.3C190.985,279.278 194.657,279.065 198.31,278.66C218.87,276.38 236.897,267.623 252.39,252.39C270.39,234.39 279.39,212.683 279.39,187.27C279.39,161.857 270.39,140.15 252.39,122.15C236.903,106.817 218.877,98.013 198.31,95.74M240.58,240.45C228.52,252.52 214.43,259.75 198.31,261.91C194.665,262.419 190.99,262.673 187.31,262.67C166.61,262.67 148.72,255.18 134,240.45C119.28,225.72 111.74,208 111.74,187.14C111.74,166.28 119.23,148.68 133.96,133.83C148.69,118.98 166.57,111.74 187.27,111.74C190.95,111.732 194.626,111.986 198.27,112.5C214.39,114.66 228.48,121.77 240.54,133.83C255.39,148.68 262.76,166.32 262.76,187.14C262.76,207.96 255.43,225.73 240.58,240.45Z" style="fill:rgb(0,63,135);fill-rule:nonzero;"/>
        </g>
    </g>
</svg>
